<?xml version="1.0" standalone="no"?>
<!DOCTYPE svg PUBLIC "-//W3C//DTD SVG 20010904//EN"
 "http://www.w3.org/TR/2001/REC-SVG-20010904/DTD/svg10.dtd">
<svg version="1.0" xmlns="http://www.w3.org/2000/svg"
 width="43" height="" viewBox="0 0 359.000000 359.000000"
 preserveAspectRatio="xMidYMid meet">

<g transform="translate(0.000000,359.000000) scale(0.100000,-0.100000)"
fill="#000000" stroke="none">
<path d="M1585 3475 c-453 -51 -853 -290 -1156 -690 -224 -298 -334 -670 -315
-1070 23 -494 226 -900 609 -1222 325 -272 718 -407 1137 -390 401 17 731 142
1028 391 293 246 498 581 572 936 96 461 5 946 -244 1304 -79 114 -214 265
-308 346 -373 320 -816 453 -1323 395z m340 -259 c165 -53 342 -191 423 -328
44 -74 81 -181 88 -257 6 -55 9 -61 29 -61 17 0 24 7 29 31 9 48 7 195 -5 356
-6 79 -9 147 -5 150 9 10 152 -78 235 -144 358 -286 561 -707 561 -1163 0
-399 -146 -754 -425 -1036 -116 -118 -181 -169 -302 -241 -75 -44 -101 -49
-71 -16 22 25 62 107 84 173 13 40 18 84 18 160 0 139 -25 216 -103 318 -67
87 -262 197 -486 275 -71 24 -204 71 -295 102 -190 66 -282 110 -362 171 -57
44 -135 138 -169 205 -50 99 -74 280 -49 368 15 53 4 49 -26 -11 -113 -224
-98 -440 44 -618 103 -129 194 -177 587 -315 540 -188 640 -256 675 -457 22
-123 -19 -245 -113 -337 -108 -105 -206 -143 -377 -143 -215 0 -377 69 -535
227 -123 123 -169 211 -200 385 -9 56 -14 65 -30 62 -11 -2 -21 -5 -23 -7 -12
-11 -11 -220 1 -385 8 -107 12 -197 10 -199 -5 -6 -75 33 -173 98 -112 73
-307 269 -384 383 -172 260 -256 533 -256 838 0 305 84 579 257 837 64 97 245
286 335 352 64 46 169 111 180 111 4 0 -2 -21 -14 -47 -33 -76 -58 -183 -58
-251 0 -65 26 -175 55 -233 78 -154 267 -266 679 -404 241 -81 394 -141 461
-183 104 -65 213 -200 257 -317 19 -51 22 -81 22 -198 l1 -139 32 69 c107 227
77 457 -81 630 -104 114 -177 150 -616 303 -408 141 -534 216 -595 351 -25 57
-27 69 -23 163 3 81 9 110 27 146 56 107 156 194 263 229 90 29 101 30 228 26
90 -2 132 -8 195 -29z"/>
</g>
</svg>
